<svg xmlns="http://www.w3.org/2000/svg" version="1.1" xmlns:xlink="http://www.w3.org/1999/xlink" xmlns:svgjs="http://svgjs.dev/svgjs" width="100%" height="100%" viewBox="0 0 1000 600"><rect width="1000" height="600" x="0" y="0" fill="white"/><g><circle r="166.66666666666666" cx="471.57865397135413" cy="493.8008172639609" fill="#585858" transform="matrix(0.4099544192605981,0,0,0.4099544192605981,0,97.5641633691884)"/><path d="M445.47644052179703 568.8008153135602L445.47644052179703 551.7745486533349L459.21002420806144 551.7745486533349L459.21002420806144 435.03908732008745L424.9886353504845 435.03908732008745L424.9886353504845 458.39743662254534L404.6978283058193 458.39743662254534L404.6978283058193 418.80081316645106L538.4595562992921 418.80081316645106L538.4595562992921 458.39743662254534L518.1968918441479 458.39743662254534L518.1968918441479 435.03908732008745L478.60026838805356 435.03908732008745L478.60026838805356 551.7745486533349L494.050550035101 551.7745486533349L494.050550035101 568.8008153135602L445.47644052179703 568.8008153135602Z " fill="white" transform="matrix(0.4099544192605981,0,0,0.4099544192605981,0,97.5641633691884)"/><path d="M760.5862245216857 566.0549342937734L760.5862245216857 549.7681435522325L773.7233383760196 549.7681435522325L773.7233383760196 438.10267579039447L740.9882350012861 438.10267579039447L740.9882350012861 460.4465374688722L721.5786876878132 460.4465374688722L721.5786876878132 422.5696538765612L849.5309461911921 422.5696538765612L849.5309461911921 460.4465374688722L830.1483191929947 460.4465374688722L830.1483191929947 438.10267579039447L792.2714356006836 438.10267579039447L792.2714356006836 549.7681435522325L807.0506886868093 549.7681435522325L807.0506886868093 566.0549342937734L760.5862245216857 566.0549342937734ZM926.8730119770554 519.2943466606218L856.2610250100108 519.2943466606218Q856.2610250100108 523.4669955282895 856.880192261342 526.9127958835245Q857.4993595126734 530.3855165540349 858.6300127542349 533.5082731259668L858.6300127542349 533.5082731259668Q862.1296537400206 542.9573037875881 869.828863908749 547.7491199065869Q877.5549943927527 552.5140157103106 887.3001485224021 552.5140157103106L887.3001485224021 552.5140157103106Q894.9724383758553 552.5140157103106 902.2140031849041 550.3873108035639Q909.4555679939529 548.2606058968172 917.3970610001588 543.7110726152957L917.3970610001588 543.7110726152957L924.5040242328312 555.7444535433434Q914.8396310490077 562.3668511010609 905.0944769193584 565.5703686188185Q895.349322789709 568.8008064518515 884.8503998323521 568.8008064518515L884.8503998323521 568.8008064518515Q874.8898831805006 568.8008064518515 866.4369041840645 565.4896076729926Q857.9570048723531 562.178408894134 851.8460933048657 555.6367722822423Q845.7621020526537 549.1220559856258 842.2893813821433 539.3769018559766Q838.8435810269083 529.6048274110519 838.8435810269083 516.6561557636451L838.8435810269083 516.6561557636451Q838.8435810269083 506.15723280628805 841.7778953919131 496.81588340576786Q844.712209756918 487.5014543205229 850.5269978563773 480.5560129795021Q856.3417859558366 473.5836513232061 864.9562868439243 469.51868371663966Q873.5707877320121 465.45371611007323 885.038842039279 465.45371611007323L885.038842039279 465.45371611007323Q896.1030916174168 465.45371611007323 903.5330986333925 468.8187555194825Q910.9631056493682 472.15687461361654 915.647240507266 477.70245956032306Q920.3313753651637 483.24804450702953 922.7542037399385 490.3280874244267Q925.1501117994378 497.43505065709917 926.0923228340724 504.81121704252433L926.0923228340724 504.81121704252433Q926.5768885090274 508.4185392894111 926.7114900854037 512.1066224821236Q926.8730119770554 515.7947056748362 926.8730119770554 519.2943466606218L926.8730119770554 519.2943466606218ZM883.8005075366164 480.20604888092356L883.8005075366164 480.20604888092356Q877.6357553385785 480.20604888092356 873.059301741782 481.9558693738164Q868.45592782971 483.70568986670924 865.2524103119524 486.9899683302927Q862.0219724789195 490.2473264786009 860.0837097790998 494.98530196704917Q858.14544707928 499.72327745549745 857.2032360446453 505.5919061855073L857.2032360446453 505.5919061855073L908.0287912843634 505.5919061855073Q907.6519068705095 500.1001618693513 906.2789707914706 495.44294732672887Q904.9060347124315 490.81265309938163 902.0524812932524 487.4206933746971Q899.2258481893487 484.0018133347373 894.7839961689283 482.11739126546803Q890.342144148508 480.20604888092356 883.8005075366164 480.20604888092356ZM1039.3999298277022 494.12385187824043L1021.6056014307458 494.12385187824043Q1017.6213947700053 487.016888645568 1011.5104832025179 483.70568986670924Q1005.426491950306 480.3944910878505 997.3773176829989 480.3944910878505L997.3773176829989 480.3944910878505Q991.212565484961 480.3944910878505 985.8285024299062 482.95192103900155Q980.4175190595761 485.5093509901526 976.4063920835601 490.2473264786009Q972.3952651075442 494.98530196704917 970.0531976785954 501.742301101143Q967.7380505649219 508.49930023523694 967.7380505649219 516.844597970572L967.7380505649219 516.844597970572Q967.7380505649219 525.0822144448059 970.0531976785954 531.7046120025234Q972.3952651075442 538.3270095602409 976.4602327141108 543.0111444181387Q980.5252003206772 547.6952792760364 985.8823430604568 550.1988685966369Q991.212565484961 552.7024579172373 997.3773176829989 552.7024579172373L997.3773176829989 552.7024579172373Q1006.4494639307663 552.7024579172373 1013.1795427495849 548.3144465273676Q1019.8827012531283 543.8995148222227 1023.8669079138689 535.392695195236L1023.8669079138689 535.392695195236L1038.4307984777922 542.5804193737342Q1035.6041653738885 548.637490310671 1031.431516506221 553.4562267449451Q1027.2857879538287 558.3018834944944 1022.009406159875 561.693843219179Q1016.7599446811964 565.1127232591389 1010.4875112220575 566.9433046978575Q1004.1881574476433 568.8008064518515 997.188875476072 568.8008064518515L997.188875476072 568.8008064518515Q986.9591556714677 568.8008064518515 978.2908141528294 564.9781216827625Q969.6493929494663 561.1285165983983 963.3500391750521 554.236915887928Q957.0506854006379 547.3183948621825 953.5510444148522 537.7616829394601Q950.0514034290666 528.2049710167378 950.0514034290666 516.844597970572L950.0514034290666 516.844597970572Q950.0514034290666 505.4842249244062 953.7394866217792 495.9275130016838Q957.4275698144918 486.3708010789614 963.8615251652823 479.5061206837664Q970.2954805160729 472.64144028857146 978.9099814041607 468.76491488893197Q987.5244822922485 464.8883894892925 997.3773176829989 464.8883894892925L997.3773176829989 464.8883894892925Q1006.6379061376932 464.8883894892925 1014.9293632424778 468.0919070070501Q1023.193900031987 471.322344840083 1029.4394131758506 477.83706113669945L1029.4394131758506 477.83706113669945L1039.3999298277022 477.83706113669945L1039.3999298277022 494.12385187824043ZM1057.9480270523663 435.0606801642885L1057.9480270523663 418.8008097380228L1088.9871505647575 418.8008097380228L1088.9871505647575 478.8061924866093L1089.5524771855382 478.8061924866093Q1092.1906680825152 476.14108127435713 1095.6633887530256 473.8259341606836Q1099.1091891082606 471.51078704700996 1102.9049535620743 469.81480718466764Q1106.6737977006128 468.0919070070501 1110.7387653071792 467.1496959724155Q1114.830653229021 466.2074849377809 1119.272505249441 466.2074849377809L1119.272505249441 466.2074849377809Q1127.1332373098212 466.2074849377809 1133.4595113995108 468.3880304750781Q1139.8127058044756 470.56857601237533 1144.2545578248958 475.01042803279563Q1148.696409845316 479.4522800532159 1151.1192382200907 486.42464170951195Q1153.5151462795902 493.37008305053274 1153.5151462795902 502.8460340274293L1153.5151462795902 502.8460340274293L1153.5151462795902 549.7681435522325L1168.294399365716 549.7681435522325L1168.294399365716 566.0549342937734L1121.722253939491 566.0549342937734L1121.722253939491 549.7681435522325L1135.155491261853 549.7681435522325L1135.155491261853 504.9996592494512Q1135.155491261853 493.74696746438656 1129.4483844234949 487.9321793649273Q1123.7143572698615 482.11739126546803 1113.0269921055774 482.11739126546803L1113.0269921055774 482.11739126546803Q1106.9699211686407 482.11739126546803 1100.7244080247772 484.9978649999224Q1094.4788948809135 487.87833873437677 1088.9871505647575 492.2394298089712L1088.9871505647575 492.2394298089712L1088.9871505647575 549.7681435522325L1103.1741567148272 549.7681435522325L1103.1741567148272 566.0549342937734L1056.6020112886026 566.0549342937734L1056.6020112886026 549.7681435522325L1071.381264374728 549.7681435522325L1071.381264374728 435.0606801642885L1057.9480270523663 435.0606801642885ZM1175.2936813372871 566.0549342937734Q1175.2936813372871 566.0549342937734 1175.2936813372871 566.0549342937734ZM1231.234096479307 438.96412587920327L1231.234096479307 422.5696538765612L1334.0158602003046 422.5696538765612L1334.0158602003046 463.19240962695017L1314.6063128868318 463.19240962695017L1314.6063128868318 438.96412587920327L1263.4038732332601 438.96412587920327L1263.4038732332601 485.05170563047295L1312.7218908175626 485.05170563047295L1312.7218908175626 500.93469164288484L1263.4038732332601 500.93469164288484L1263.4038732332601 549.7681435522325L1277.7793215902566 549.7681435522325L1277.7793215902566 566.0549342937734L1231.234096479307 566.0549342937734L1231.234096479307 549.7681435522325L1244.855776008596 549.7681435522325L1244.855776008596 438.96412587920327L1231.234096479307 438.96412587920327ZM1392.7829084462285 566.0549342937734L1392.7829084462285 556.9558677307307Q1387.2104031842466 562.178408894134 1380.4264837348776 565.4896076729926Q1373.6694846007838 568.8008064518515 1365.054983712696 568.8008064518515L1365.054983712696 568.8008064518515Q1357.8672595341977 568.8008064518515 1351.8371089125362 566.5394999687285Q1345.8338786061502 564.25127317033 1341.4727875315557 560.32090714014Q1337.1386167722364 556.3905411099499 1334.7157883974617 551.1949202618221Q1332.2929600226873 545.9992994136941 1332.2929600226873 540.1306706836842L1332.2929600226873 540.1306706836842Q1332.2929600226873 533.8851575398206 1334.1504617766811 529.0395007902712Q1336.007963530675 524.2207643559971 1339.0768794720561 520.667282739661Q1342.1457954134376 517.1138011233247 1346.2646036505546 514.7178930638253Q1350.3834118876714 512.2950646890506 1354.8791045386422 510.8413676641858Q1359.374797189613 509.3607503240457 1364.0589320475108 508.7415830727144Q1368.7430669054086 508.1224158213831 1372.996476718902 508.1224158213831L1372.996476718902 508.1224158213831Q1379.8073164835462 508.1224158213831 1384.4645310261687 508.5531408657875Q1389.094825253516 508.98386591019187 1392.8636693920546 509.73763473789955L1392.8636693920546 509.73763473789955L1392.9713506531555 501.6884604705925Q1392.9713506531555 496.49283962246454 1391.46381299774 492.6701548533756Q1389.9293550270495 488.8205497690114 1387.2104031842466 486.31696044841084Q1384.4645310261687 483.81337112781034 1380.6149259418046 482.5750366251477Q1376.7922411727156 481.36362243776034 1372.0542656842672 481.36362243776034L1372.0542656842672 481.36362243776034Q1367.612413663847 481.36362243776034 1363.5474460572807 481.9558693738164Q1359.4555581354389 482.5750366251477 1355.928996834378 483.57108829033285Q1352.3755152180418 484.56713995551803 1349.3873602224864 485.8593150887312Q1346.3992052269307 487.1245699066691 1344.3263409507347 488.5513466162586L1344.3263409507347 488.5513466162586L1338.565393481826 476.32952348128407Q1342.0650344676117 474.068216998161 1346.210763020004 472.12995429834126Q1350.3834118876714 470.1916915985215 1354.9598654844683 468.8187555194825Q1359.56323939654 467.44581944044353 1364.3550555155389 466.6382099821853Q1369.1199513192623 465.83060052392705 1373.7502455466094 465.83060052392705L1373.7502455466094 465.83060052392705Q1382.2839854888716 465.83060052392705 1389.094825253516 467.8765444848479Q1395.9056650181603 469.8955681304935 1400.6436405066086 474.14897794398684Q1405.3816159950568 478.4293080727555 1407.912125630933 484.9978649999224Q1410.4695555820838 491.5664219270893 1410.4695555820838 500.7462494359579L1410.4695555820838 500.7462494359579L1410.3887946362581 549.7681435522325L1421.264602007469 549.7681435522325L1421.264602007469 566.0549342937734L1392.7829084462285 566.0549342937734ZM1368.9315091123356 554.048473681001L1368.9315091123356 554.048473681001Q1372.4311500981212 554.048473681001 1375.9307910839068 553.1870235921924Q1379.4304320696924 552.3255735033836 1382.5531886416245 550.8718764785187Q1385.6759452135561 549.3912591383787 1388.3410564258083 547.452996438559Q1390.979247322785 545.5147337387391 1392.7829084462285 543.4418694625431L1392.7829084462285 543.4418694625431L1392.8636693920546 521.2864499909922L1372.4311500981212 521.2864499909922Q1367.3162901958192 521.2864499909922 1363.1167210128763 522.4171032325537Q1358.8902315146581 523.5477564741152 1355.8213155732767 525.7283020114126Q1352.7523996318957 527.9088475487097 1351.0564197695533 531.1392853817426Q1349.3335195919358 534.3428028995004 1349.3335195919358 538.5154517671679L1349.3335195919358 538.5154517671679Q1349.3335195919358 542.3919771668072 1350.7602963015254 545.2724509012617Q1352.1870730111148 548.1798449509913 1354.7714232775413 550.118107650811Q1357.3826938592429 552.0563703506309 1360.9900161061296 553.052422015816Q1364.570418037741 554.048473681001 1368.9315091123356 554.048473681001ZM1440.3780258529134 484.27101648749L1440.3780258529134 468.0111460612243L1472.3862807152148 468.0111460612243L1472.3862807152148 549.7681435522325L1487.1386134860652 549.7681435522325L1487.1386134860652 566.0549342937734L1440.5664680598404 566.0549342937734L1440.5664680598404 549.7681435522325L1454.5919523182586 549.7681435522325L1454.5919523182586 484.27101648749L1440.3780258529134 484.27101648749ZM1451.2807535393997 433.28393935612036L1451.2807535393997 433.28393935612036Q1451.2807535393997 430.80727035079514 1452.276805204585 428.5998044982226Q1453.2459365544948 426.3654183303749 1454.9149961015617 424.69635878330786Q1456.5571353333535 423.05421955151616 1458.845362131752 422.058167886331Q1461.106668614875 421.0621162211458 1463.664098566026 421.0621162211458L1463.664098566026 421.0621162211458Q1466.140767571351 421.0621162211458 1468.3482334239236 422.058167886331Q1470.5826195917714 423.05421955151616 1472.224758823563 424.69635878330786Q1473.8938183706302 426.3654183303749 1474.8898700358152 428.5998044982226Q1475.8859217010004 430.80727035079514 1475.8859217010004 433.28393935612036L1475.8859217010004 433.28393935612036Q1475.8859217010004 435.81444899199613 1474.8898700358152 438.10267579039447Q1473.8938183706302 440.36398227351754 1472.224758823563 442.11380276641034Q1470.5826195917714 443.8636232593032 1468.3482334239236 444.85967492448833Q1466.140767571351 445.8557265896735 1463.664098566026 445.8557265896735L1463.664098566026 445.8557265896735Q1461.106668614875 445.8557265896735 1458.845362131752 444.85967492448833Q1456.5571353333535 443.8636232593032 1454.9149961015617 442.11380276641034Q1453.2459365544948 440.36398227351754 1452.276805204585 438.10267579039447Q1451.2807535393997 435.81444899199613 1451.2807535393997 433.28393935612036ZM1573.8220286724484 467.44581944044353L1573.8220286724484 488.7397888231855L1555.8392580685652 488.7397888231855L1555.8392580685652 482.6827178862488Q1552.7165014966333 482.6827178862488 1549.4591433483254 483.8672117583609Q1546.201785200017 485.05170563047295 1543.348231780838 487.44761368997234Q1540.5215986769342 489.87044206474707 1538.3948937701878 493.6123658880102Q1536.2681888634409 497.35428971127334 1535.2990575135311 502.4422292983002L1535.2990575135311 502.4422292983002L1535.2990575135311 549.7681435522325L1551.9627326689258 549.7681435522325L1551.9627326689258 566.0549342937734L1503.317722966505 566.0549342937734L1503.317722966505 549.7681435522325L1516.858641549968 549.7681435522325L1516.939402495794 484.27101648749L1503.317722966505 484.27101648749L1503.317722966505 468.0111460612243L1534.6529699469245 468.0111460612243L1534.6529699469245 481.5520646446873Q1536.3489498092667 478.5100690185813 1538.4756547160134 475.89879843687964Q1540.6023596227599 473.3144481704533 1543.2136302044617 471.3761854706336Q1545.8249007861632 469.4379227708138 1548.9745776733705 468.3341898445276Q1552.1511748758528 467.2573772335166 1555.8392580685652 467.2573772335166L1555.8392580685652 467.2573772335166Q1560.7656757639406 467.2573772335166 1565.126766838535 467.2573772335166Q1569.4878579131293 467.2573772335166 1573.8220286724484 467.44581944044353L1573.8220286724484 467.44581944044353ZM1584.7247563589347 566.0549342937734Q1584.7247563589347 566.0549342937734 1584.7247563589347 566.0549342937734ZM1640.6382511856793 438.96412587920327L1640.6382511856793 422.5696538765612L1700.3744307815132 422.5696538765612Q1709.9311427042355 422.5696538765612 1718.0072372868178 425.07324319716173Q1726.1102521846753 427.6037528330375 1732.032721545236 432.4763298978622Q1737.928270590521 437.3489069626868 1741.2394693693798 444.61739208701084Q1744.5775884635138 451.91279752661023 1744.5775884635138 461.3887485035068L1744.5775884635138 461.3887485035068Q1744.5775884635138 466.77281155856167 1742.6124054484187 472.02227303724015Q1740.6741427485988 477.2717345159187 1737.2283423933638 481.7674271668895Q1733.782542038129 486.2631198178603 1729.0445665496807 489.76276080364596Q1724.3065910612322 493.26240178943164 1718.7340857992506 495.1737441739761L1718.7340857992506 495.1737441739761Q1721.1030735434745 496.1967161544365 1723.498981602974 498.1618991695316Q1725.9218099777484 500.1001618693513 1728.0485148844953 502.8729543427046Q1730.1752197912422 505.6726671313331 1731.9250402841349 509.22614874766936Q1733.6748607770276 512.7796303640055 1734.7247530727634 516.844597970572L1734.7247530727634 516.844597970572L1742.6662460789692 548.0721636898902L1755.076511420871 548.0721636898902L1755.264953627798 566.0549342937734L1727.3485866873382 566.0549342937734L1716.634301207779 522.4171032325537Q1713.699986842774 510.6798457725341 1707.6967565363877 505.1611811411029Q1701.6935262300017 499.61559619439635 1691.2753642184705 499.61559619439635L1691.2753642184705 499.61559619439635L1672.8349482549077 499.61559619439635L1672.8349482549077 549.7681435522325L1687.2103966119041 549.7681435522325L1687.2103966119041 566.0549342937734L1640.6382511856793 566.0549342937734L1640.6382511856793 549.7681435522325L1654.2868510302435 549.7681435522325L1654.2868510302435 438.96412587920327L1640.6382511856793 438.96412587920327ZM1698.086203983115 438.96412587920327L1672.8349482549077 438.96412587920327L1672.8349482549077 484.08257428056305L1700.3744307815132 484.08257428056305Q1705.758493836568 484.08257428056305 1710.254186487539 482.6827178862488Q1714.7498791385099 481.2559411766593 1718.0072372868178 478.4293080727555Q1721.2915157504015 475.5757546535764 1723.1220971891203 471.3761854706336Q1724.9795989431138 467.1496959724155 1724.9795989431138 461.5771907104337L1724.9795989431138 461.5771907104337Q1724.9795989431138 450.8629052308745 1718.5456435923236 444.9135155550389Q1712.1116882415329 438.96412587920327 1698.086203983115 438.96412587920327L1698.086203983115 438.96412587920327ZM1832.203214684532 566.0549342937734L1832.203214684532 556.9558677307307Q1826.6307094225501 562.178408894134 1819.846789973181 565.4896076729926Q1813.0897908390868 568.8008064518515 1804.4752899509992 568.8008064518515L1804.4752899509992 568.8008064518515Q1797.287565772501 568.8008064518515 1791.2574151508395 566.5394999687285Q1785.2541848444532 564.25127317033 1780.9200140851342 560.32090714014Q1776.55892301054 556.3905411099499 1774.1360946357652 551.1949202618221Q1771.7401865762656 545.9992994136941 1771.7401865762656 540.1306706836842L1771.7401865762656 540.1306706836842Q1771.7401865762656 533.8851575398206 1773.5707680149842 529.0395007902712Q1775.4282697689785 524.2207643559971 1778.4971857103594 520.667282739661Q1781.5661016517408 517.1138011233247 1785.6849098888576 514.7178930638253Q1789.803718125975 512.2950646890506 1794.2994107769457 510.8413676641858Q1798.795103427916 509.3607503240457 1803.4792382858138 508.7415830727144Q1808.1633731437116 508.1224158213831 1812.416782957205 508.1224158213831L1812.416782957205 508.1224158213831Q1819.2276227218497 508.1224158213831 1823.8848372644723 508.5531408657875Q1828.5151314918191 508.98386591019187 1832.3108959456329 509.73763473789955L1832.3108959456329 509.73763473789955L1832.3916568914585 501.6884604705925Q1832.3916568914585 496.49283962246454 1830.884119236043 492.6701548533756Q1829.376581580628 488.8205497690114 1826.6307094225501 486.31696044841084Q1823.8848372644723 483.81337112781034 1820.035232180108 482.5750366251477Q1816.2125474110187 481.36362243776034 1811.4745719225705 481.36362243776034L1811.4745719225705 481.36362243776034Q1807.0327199021501 481.36362243776034 1802.9677522955838 481.9558693738164Q1798.9027846890174 482.5750366251477 1795.349303072681 483.57108829033285Q1791.7958214563453 484.56713995551803 1788.8076664607895 485.8593150887312Q1785.8195114652342 487.1245699066691 1783.7466471890382 488.5513466162586L1783.7466471890382 488.5513466162586L1777.9856997201293 476.32952348128407Q1781.4853407059152 474.068216998161 1785.6310692583072 472.12995429834126Q1789.803718125975 470.1916915985215 1794.4070920380466 468.8187555194825Q1798.9835456348435 467.44581944044353 1803.7753617538422 466.6382099821853Q1808.5402575575656 465.83060052392705 1813.170551784913 465.83060052392705L1813.170551784913 465.83060052392705Q1821.704291727175 465.83060052392705 1828.5151314918191 467.8765444848479Q1835.3259712564638 469.8955681304935 1840.063946744912 474.14897794398684Q1844.8019222333603 478.4293080727555 1847.3593521845112 484.9978649999224Q1849.8898618203873 491.5664219270893 1849.8898618203873 500.7462494359579L1849.8898618203873 500.7462494359579L1849.8091008745612 549.7681435522325L1860.6849082457722 549.7681435522325L1860.6849082457722 566.0549342937734L1832.203214684532 566.0549342937734ZM1808.3518153506386 554.048473681001L1808.3518153506386 554.048473681001Q1811.8514563364245 554.048473681001 1815.3510973222103 553.1870235921924Q1818.8507383079957 552.3255735033836 1821.9734948799276 550.8718764785187Q1825.0962514518594 549.3912591383787 1827.7613626641116 547.452996438559Q1830.3995535610882 545.5147337387391 1832.203214684532 543.4418694625431L1832.203214684532 543.4418694625431L1832.3108959456329 521.2864499909922L1811.8514563364245 521.2864499909922Q1806.7365964341222 521.2864499909922 1802.5370272511793 522.4171032325537Q1798.3105377529612 523.5477564741152 1795.2416218115802 525.7283020114126Q1792.1727058701988 527.9088475487097 1790.4767260078563 531.1392853817426Q1788.753825830239 534.3428028995004 1788.753825830239 538.5154517671679L1788.753825830239 538.5154517671679Q1788.753825830239 542.3919771668072 1790.1806025398284 545.2724509012617Q1791.6073792494183 548.1798449509913 1794.1917295158444 550.118107650811Q1796.8030000975461 552.0563703506309 1800.4103223444329 553.052422015816Q1803.9907242760444 554.048473681001 1808.3518153506386 554.048473681001ZM1908.953033534339 436.4066959280522L1908.953033534339 468.0111460612243L1931.9429827794231 468.0111460612243L1931.9429827794231 482.30583347239497L1908.764591327412 482.30583347239497L1908.4953881746594 538.8923361810216Q1908.4953881746594 544.6532836499304 1909.8144836231475 548.2606058968172Q1911.133579071636 551.8679281437039 1914.0678934366413 553.2408642227429Q1917.0022078016461 554.6138003017818 1920.6902909943585 554.6138003017818L1920.6902909943585 554.6138003017818Q1924.6744976550992 554.6138003017818 1927.6895729659302 553.8869517893495Q1930.731568592036 553.1870235921924 1934.3119705236475 551.4910437298502L1934.3119705236475 551.4910437298502L1938.403858445489 563.3090621356955Q1933.8543251639678 565.6780498799196 1928.8202262074913 567.0509859589586Q1923.8130475662904 568.4239220379975 1917.0022078016461 568.4239220379975L1917.0022078016461 568.4239220379975Q1910.5682524508554 568.4239220379975 1905.7764363318568 566.8625437520318Q1901.0115405281329 565.3011654660659 1897.754182379825 561.6130822733533Q1894.4699039162413 557.9249990806406 1892.8816053150001 551.7064062520523Q1891.2663863984837 545.5147337387391 1891.2663863984837 536.2541452840449L1891.2663863984837 536.2541452840449L1891.5355895512364 482.30583347239497L1875.9218066915776 482.30583347239497L1875.9218066915776 468.0111460612243L1891.7240317581634 468.0111460612243L1891.7240317581634 444.53663114118507L1908.953033534339 436.4066959280522ZM2039.947287663824 519.2943466606218L1969.3353006967793 519.2943466606218Q1969.3353006967793 523.4669955282895 1969.9544679481107 526.9127958835245Q1970.5736351994422 530.3855165540349 1971.7042884410037 533.5082731259668L1971.7042884410037 533.5082731259668Q1975.203929426789 542.9573037875881 1982.930059910793 547.7491199065869Q1990.6292700795213 552.5140157103106 2000.3744242091705 552.5140157103106L2000.3744242091705 552.5140157103106Q2008.046714062624 552.5140157103106 2015.2882788716727 550.3873108035639Q2022.5298436807213 548.2606058968172 2030.471336686927 543.7110726152957L2030.471336686927 543.7110726152957L2037.5782999196 555.7444535433434Q2027.9139067357762 562.3668511010609 2018.168752606127 565.5703686188185Q2008.4235984764775 568.8008064518515 1997.9246755191205 568.8008064518515L1997.9246755191205 568.8008064518515Q1987.9910791825444 568.8008064518515 1979.5111798708333 565.4896076729926Q1971.0312805591218 562.178408894134 1964.9472893069099 555.6367722822423Q1958.8363777394227 549.1220559856258 1955.3905773841873 539.3769018559766Q1951.917856713677 529.6048274110519 1951.917856713677 516.6561557636451L1951.917856713677 516.6561557636451Q1951.917856713677 506.15723280628805 1954.852171078682 496.81588340576786Q1957.7864854436868 487.5014543205229 1963.6012735431457 480.5560129795021Q1969.4429819578806 473.5836513232061 1978.0574828459683 469.51868371663966Q1986.6719837340559 465.45371611007323 1998.1131177260474 465.45371611007323L1998.1131177260474 465.45371611007323Q2009.1773673041855 465.45371611007323 2016.6073743201612 468.8187555194825Q2024.0373813361368 472.15687461361654 2028.7215161940346 477.70245956032306Q2033.4056510519324 483.24804450702953 2035.8284794267067 490.3280874244267Q2038.251307801482 497.43505065709917 2039.1935188361165 504.81121704252433L2039.1935188361165 504.81121704252433Q2039.6511641957961 508.4185392894111 2039.8126860874474 512.1066224821236Q2039.947287663824 515.7947056748362 2039.947287663824 519.2943466606218L2039.947287663824 519.2943466606218ZM1996.874783223385 480.20604888092356L1996.874783223385 480.20604888092356Q1990.7369513406222 480.20604888092356 1986.1335774285506 481.9558693738164Q1981.557123831754 483.70568986670924 1978.326685998721 486.9899683302927Q1975.1231684809634 490.2473264786009 1973.1849057811435 494.98530196704917Q1971.2197227660483 499.72327745549745 1970.2775117314138 505.5919061855073L1970.2775117314138 505.5919061855073L2021.103066971132 505.5919061855073Q2020.726182557278 500.1001618693513 2019.353246478239 495.44294732672887Q2017.9803103992 490.81265309938163 2015.1536772952961 487.4206933746971Q2012.300123876117 484.0018133347373 2007.858271855697 482.11739126546803Q2003.4164198352767 480.20604888092356 1996.874783223385 480.20604888092356ZM2134.3837536494866 467.44581944044353L2134.3837536494866 488.7397888231855L2116.4009830456034 488.7397888231855L2116.4009830456034 482.6827178862488Q2113.2782264736716 482.6827178862488 2110.020868325363 483.8672117583609Q2106.7635101770547 485.05170563047295 2103.909956757876 487.44761368997234Q2101.083323653972 489.87044206474707 2098.9566187472255 493.6123658880102Q2096.829913840478 497.35428971127334 2095.887702805844 502.4422292983002L2095.887702805844 502.4422292983002L2095.887702805844 549.7681435522325L2112.5244576459636 549.7681435522325L2112.5244576459636 566.0549342937734L2063.879447943543 566.0549342937734L2063.879447943543 549.7681435522325L2077.420366527006 549.7681435522325L2077.528047788107 484.27101648749L2063.879447943543 484.27101648749L2063.879447943543 468.0111460612243L2095.2146949239623 468.0111460612243L2095.2146949239623 481.5520646446873Q2096.9106747863043 478.5100690185813 2099.0373796930517 475.89879843687964Q2101.164084599798 473.3144481704533 2103.7753551814994 471.3761854706336Q2106.3866257632008 469.4379227708138 2109.563222965683 468.3341898445276Q2112.7128998528906 467.2573772335166 2116.4009830456034 467.2573772335166L2116.4009830456034 467.2573772335166Q2121.327400740978 467.2573772335166 2125.688491815573 467.2573772335166Q2130.0495828901667 467.2573772335166 2134.3837536494866 467.44581944044353L2134.3837536494866 467.44581944044353Z " fill="#585858" transform="matrix(0.4099544192605981,0,0,0.4099544192605981,0,97.5641633691884)"/></g></svg>